<svg width="15" height="14" viewBox="0 0 15 14" fill="none" xmlns="http://www.w3.org/2000/svg">
    <path d="M11.5833 1.4H10.8611V0.7C10.8611 0.514348 10.785 0.336301 10.6496 0.205025C10.5141 0.0737498 10.3304 0 10.1389 0C9.94734 0 9.76364 0.0737498 9.6282 0.205025C9.49276 0.336301 9.41667 0.514348 9.41667 0.7V1.4H5.08333V0.7C5.08333 0.514348 5.00724 0.336301 4.8718 0.205025C4.73636 0.0737498 4.55266 0 4.36111 0C4.16957 0 3.98587 0.0737498 3.85042 0.205025C3.71498 0.336301 3.63889 0.514348 3.63889 0.7V1.4H2.91667C2.34203 1.4 1.79093 1.62125 1.3846 2.01508C0.978273 2.4089 0.75 2.94305 0.75 3.5V11.9C0.75 12.457 0.978273 12.9911 1.3846 13.3849C1.79093 13.7788 2.34203 14 2.91667 14H11.5833C12.158 14 12.7091 13.7788 13.1154 13.3849C13.5217 12.9911 13.75 12.457 13.75 11.9V3.5C13.75 2.94305 13.5217 2.4089 13.1154 2.01508C12.7091 1.62125 12.158 1.4 11.5833 1.4ZM2.91667 2.8H3.63889V3.5C3.63889 3.68565 3.71498 3.8637 3.85042 3.99497C3.98587 4.12625 4.16957 4.2 4.36111 4.2C4.55266 4.2 4.73636 4.12625 4.8718 3.99497C5.00724 3.8637 5.08333 3.68565 5.08333 3.5V2.8H9.41667V3.5C9.41667 3.68565 9.49276 3.8637 9.6282 3.99497C9.76364 4.12625 9.94734 4.2 10.1389 4.2C10.3304 4.2 10.5141 4.12625 10.6496 3.99497C10.785 3.8637 10.8611 3.68565 10.8611 3.5V2.8H11.5833C11.7749 2.8 11.9586 2.87375 12.094 3.00503C12.2295 3.1363 12.3056 3.31435 12.3056 3.5V6.3H2.19444V3.5C2.19444 3.31435 2.27054 3.1363 2.40598 3.00503C2.54142 2.87375 2.72512 2.8 2.91667 2.8ZM11.5833 12.6H2.91667C2.72512 12.6 2.54142 12.5263 2.40598 12.395C2.27054 12.2637 2.19444 12.0857 2.19444 11.9V7.7H12.3056V11.9C12.3056 12.0857 12.2295 12.2637 12.094 12.395C11.9586 12.5263 11.7749 12.6 11.5833 12.6Z" fill="white"/>
    <path d="M4.91634 10.1667C5.23851 10.1667 5.49968 9.9055 5.49968 9.58333C5.49968 9.26117 5.23851 9 4.91634 9C4.59418 9 4.33301 9.26117 4.33301 9.58333C4.33301 9.9055 4.59418 10.1667 4.91634 10.1667Z" fill="white"/>
    <path d="M9.58366 9H7.25033C7.09562 9 6.94724 9.06146 6.83785 9.17085C6.72845 9.28025 6.66699 9.42862 6.66699 9.58333C6.66699 9.73804 6.72845 9.88642 6.83785 9.99581C6.94724 10.1052 7.09562 10.1667 7.25033 10.1667H9.58366C9.73837 10.1667 9.88674 10.1052 9.99614 9.99581C10.1055 9.88642 10.167 9.73804 10.167 9.58333C10.167 9.42862 10.1055 9.28025 9.99614 9.17085C9.88674 9.06146 9.73837 9 9.58366 9Z" fill="white"/>
</svg>