<svg width="11" height="11" viewBox="0 0 11 11" fill="none" xmlns="http://www.w3.org/2000/svg">
    <path fill-rule="evenodd" clip-rule="evenodd" d="M8.91016 4.29274C9.73858 4.29274 10.4102 4.96431 10.4102 5.79274C10.4102 6.62117 9.73858 7.29274 8.91016 7.29274H4.99172L6.13832 8.43934C6.7241 9.02512 6.7241 9.97487 6.13832 10.5607C5.55253 11.1464 4.60278 11.1464 4.017 10.5607L0.439466 6.98313C0.0693565 6.61303 -0.0669441 6.09765 0.0306559 5.62057C0.0869559 5.34098 0.223556 5.07435 0.440316 4.85757L3.94449 1.35336C4.53027 0.767662 5.48002 0.767662 6.06581 1.35336C6.65159 1.93919 6.65159 2.88893 6.06581 3.47472L5.24779 4.29274L8.91016 4.29274Z" fill="#FF9742"/>
</svg>