<svg width="11" height="11" viewBox="0 0 11 11" fill="none" xmlns="http://www.w3.org/2000/svg">
<g clip-path="url(#clip0)">
<path fill-rule="evenodd" clip-rule="evenodd" d="M1.5 7.62132C0.671573 7.62132 3.6212e-08 6.94975 0 6.12132C-3.6212e-08 5.29289 0.671573 4.62132 1.5 4.62132H5.41844L4.27184 3.47472C3.68606 2.88894 3.68606 1.93919 4.27184 1.3534C4.85763 0.767616 5.80738 0.767617 6.39316 1.3534L9.97069 4.93093C10.3408 5.30103 10.4771 5.81641 10.3795 6.29349C10.3232 6.57308 10.1866 6.83971 9.96984 7.05649L6.46567 10.5607C5.87989 11.1464 4.93014 11.1464 4.34435 10.5607C3.75857 9.97487 3.75857 9.02513 4.34435 8.43934L5.16237 7.62132H1.5Z" fill="#FF9742"/>
</g>
<defs>
<clipPath id="clip0">
<rect width="11" height="11" fill="white"/>
</clipPath>
</defs>
</svg>